<svg xmlns="http://www.w3.org/2000/svg" xmlns:xlink="http://www.w3.org/1999/xlink" viewBox="0,0,256,256" width="24px" height="24px" fill-rule="nonzero"><g fill="#ffffff" fill-rule="nonzero" stroke="none" stroke-width="1" stroke-linecap="butt" stroke-linejoin="miter" stroke-miterlimit="10" stroke-dasharray="" stroke-dashoffset="0" font-family="none" font-weight="none" font-size="none" text-anchor="none" style="mix-blend-mode: normal"><g transform="scale(10.66667,10.66667)"><path d="M11,0v3h2v-3zM4.26563,2.83203l-1.41406,1.41406l2.12109,2.12109l1.41406,-1.41406zM19.75391,2.85156l-2.12109,2.12109l1.41406,1.41406l2.12109,-2.12109zM12,5c-3.85415,0 -7,3.14585 -7,7c0,3.85415 3.14585,7 7,7c3.85415,0 7,-3.14585 7,-7c0,-3.85415 -3.14585,-7 -7,-7zM12,7c2.77327,0 5,2.22673 5,5c0,2.77327 -2.22673,5 -5,5c-2.77327,0 -5,-2.22673 -5,-5c0,-2.77327 2.22673,-5 5,-5zM0,11v2h3v-2zM21,11v2h3v-2zM4.95313,17.61328l-2.12109,2.12109l1.41406,1.41406l2.12109,-2.12109zM19.02734,17.63281l-1.41406,1.41406l2.12109,2.12109l1.41406,-1.41406zM11,21v3h2v-3z"></path></g></g></svg>